<svg width="101" height="100" viewBox="0 0 101 100" fill="none" xmlns="http://www.w3.org/2000/svg">
<path d="M101 52C101 78.5097 79.5097 100 53 100C26.4903 100 5 78.5097 5 52C5 25.4903 26.4903 4 53 4C22 102 101 25.4903 101 52Z" fill="#78D6BF"/>
<path d="M94.5 48C94.5 73.6812 73.6812 94.5 48 94.5C22.3188 94.5 1.5 73.6812 1.5 48C1.5 23.0071 21.2177 2.61946 45.9459 1.54456C42.4437 12.8955 40.4476 21.8836 39.6711 28.948C38.8524 36.3961 39.3716 41.8541 41.0458 45.7129C42.7628 49.6703 45.6535 51.8446 49.2053 52.7204C52.6572 53.5716 56.6553 53.1812 60.7036 52.2724C64.773 51.3589 69.0627 49.8798 73.1454 48.4144C73.7759 48.1881 74.4008 47.9624 75.0192 47.739C78.4434 46.5021 81.6681 45.3373 84.5403 44.5433C88.0033 43.5859 90.5861 43.2828 92.2309 43.7814C92.9795 44.0083 93.4918 44.3897 93.846 44.9601C94.2211 45.5643 94.5 46.5139 94.5 48Z" stroke="black" stroke-width="3"/>
<circle cx="68" cy="28" r="10" fill="#78D6BF"/>
<circle cx="65" cy="25" r="8.5" stroke="black" stroke-width="3"/>
</svg>
